<?xml version="1.0" encoding="UTF-8"?>
<svg xmlns="http://www.w3.org/2000/svg" viewBox="0 0 512 512">
  <rect width="512" height="512" rx="64" fill="#111111"/>
  <g transform="translate(256,256) scale(0.55) translate(-256,-256)">
    <path d="M507.73 109.1c-2.24-9.03-13.54-12.09-20.12-5.51l-74.36 74.36-67.88-11.31-11.31-67.88 74.36-74.36c6.58-6.58 3.52-17.88-5.51-20.12-32.29-8.01-67.55.37-92.83 25.65-30.89 30.89-36.33 77.27-16.33 113.84L41.69 396.02c-22.58 22.58-22.58 59.18 0 81.76s59.18 22.58 81.76 0l252.25-252.06c36.57 20 82.95 14.56 113.84-16.33 25.28-25.28 33.66-60.54 25.65-92.83zM82.56 467.87c-13.25 0-24-10.75-24-24s10.75-24 24-24 24 10.75 24 24-10.75 24-24 24z" fill="#ffffff"/>
  </g>
</svg>
