<?xml version="1.0" encoding="UTF-8"?>
<svg id="Layer_2" data-name="Layer 2" xmlns="http://www.w3.org/2000/svg" viewBox="0 0 114.19 52.24">
  <defs>
    <style>
      .cls-1 {
        letter-spacing: -.03em;
      }

      .cls-2 {
        fill: #8bc53f;
      }

      .cls-3 {
        font-family: Roboto-Black, Roboto;
        font-size: 4.32px;
        font-weight: 800;
      }

      .cls-3, .cls-4 {
        fill: #6d6e70;
      }

      .cls-5 {
        letter-spacing: -.1em;
      }

      .cls-6 {
        letter-spacing: -.06em;
      }
    </style>
  </defs>
  <g id="Layer_1-2" data-name="Layer 1">
    <g>
      <g>
        <path class="cls-4" d="M17.33,27.41c.82.31,1.51.69,2.08,1.14.57.45,1.02.94,1.37,1.47.34.53.59,1.08.73,1.65.14.57.22,1.12.22,1.65,0,1.06-.24,2.05-.73,2.97-.49.92-1.24,1.73-2.26,2.42-1.01.69-2.3,1.23-3.84,1.63-1.54.4-3.37.59-5.48.59H.14V15.23h10.42c3.46,0,6.1.55,7.92,1.65,1.82,1.1,2.73,2.77,2.73,5.01,0,.5-.07,1.02-.2,1.56-.13.54-.34,1.05-.63,1.55-.29.49-.69.95-1.19,1.36-.5.42-1.12.77-1.86,1.05ZM5.53,19.7v16.75h4.71c1.85,0,3.36-.25,4.54-.76,1.17-.5,1.76-1.3,1.76-2.37s-.4-1.88-1.19-2.4c-.79-.53-1.78-.79-2.97-.79h-3.72v-4.47h3.72c1.19,0,2.1-.24,2.75-.72.64-.48.97-1.24.97-2.29s-.44-1.8-1.33-2.26c-.89-.46-2.4-.69-4.54-.69h-4.71Z"/>
        <path class="cls-4" d="M24.77,40.96V15.29h5.39v25.67h-5.39Z"/>
        <path class="cls-4" d="M48.79,40.96c-2.27,0-4.37-.33-6.28-1.01-1.92-.67-3.56-1.59-4.93-2.78-1.38-1.18-2.44-2.57-3.21-4.16-.77-1.59-1.15-3.31-1.15-5.15s.37-3.53,1.13-5.07c.76-1.54,1.81-2.87,3.17-3.98,1.36-1.12,3-1.98,4.92-2.6,1.92-.61,4.04-.92,6.36-.92h.91c2.35,0,4.48.31,6.4.94,1.92.62,3.56,1.5,4.92,2.62,1.36,1.12,2.41,2.45,3.15,3.98.74,1.54,1.11,3.21,1.11,5.04s-.38,3.56-1.15,5.15c-.77,1.59-1.85,2.98-3.23,4.16-1.39,1.19-3.03,2.11-4.94,2.78-1.9.67-3.99,1.01-6.26,1.01h-.91ZM48.79,19.77c-1.47,0-2.83.21-4.07.62-1.24.42-2.31,1-3.22,1.75-.91.75-1.62,1.63-2.13,2.67-.51,1.03-.77,2.17-.77,3.42s.25,2.31.75,3.32c.5,1.01,1.2,1.88,2.09,2.62.9.74,1.97,1.31,3.22,1.71,1.25.41,2.63.61,4.13.61h.91c1.53,0,2.92-.21,4.17-.62,1.25-.42,2.33-.99,3.22-1.73.89-.74,1.59-1.61,2.07-2.62.49-1.01.73-2.11.73-3.29s-.25-2.36-.75-3.39c-.5-1.03-1.21-1.92-2.11-2.68-.91-.76-1.99-1.34-3.24-1.76-1.25-.41-2.61-.62-4.09-.62h-.91Z"/>
      </g>
      <path class="cls-2" d="M76.82,17.64h4.95c1.41,0,2.55,1.14,2.55,2.55v4.95c0,1.41-1.14,2.55-2.55,2.55h-4.95c-1.41,0-2.55-1.14-2.55-2.55v-4.95c0-1.41,1.14-2.55,2.55-2.55Z"/>
      <path class="cls-2" d="M80,4.1h4.95c1.41,0,2.55,1.14,2.55,2.55v4.95c0,1.41-1.14,2.55-2.55,2.55h-4.95c-1.41,0-2.55-1.14-2.55-2.55v-4.95c0-1.41,1.14-2.55,2.55-2.55Z"/>
      <path class="cls-2" d="M67.81,9.15h2.15c.61,0,1.11.5,1.11,1.11v2.15c0,.61-.5,1.11-1.11,1.11h-2.15c-.61,0-1.11-.5-1.11-1.11v-2.15c0-.61.5-1.11,1.11-1.11Z"/>
      <path class="cls-2" d="M90.77,43.32c.68,1.4,1.55,2.88,2.63,4.4,2.13-2.18,4.32-4.19,6.7-6.1-.94-1.35-1.72-2.64-2.32-3.86-2.53,1.67-4.8,3.47-7,5.56Z"/>
      <path class="cls-2" d="M105.38,31.23c.21.72.54,1.52,1.01,2.38,1.75-.51,3.47-.9,5.22-1.18.19-.58.37-1.17.54-1.76-2.27,0-4.47.2-6.77.57Z"/>
      <path class="cls-2" d="M87.79,46.8c-.86,1.18-1.6,2.38-2.22,3.59.3.56.64,1.14,1.01,1.73,1.26-.09,2.46-.24,3.61-.44.11-.15.21-.3.32-.46.83-1.15,1.74-2.26,2.71-3.33-1.08-1.53-1.95-3.01-2.63-4.41-1.01,1.03-1.95,2.13-2.8,3.31Z"/>
      <path class="cls-2" d="M96.65,34.16c.26,1,.69,2.12,1.28,3.32,2.67-1.51,5.34-2.74,8.22-3.79-.47-.87-.81-1.67-1.02-2.4-2.96.7-5.7,1.63-8.48,2.88Z"/>
      <path class="cls-2" d="M105.15,29.23c-.06.55,0,1.19.2,1.91,2.31-.37,4.53-.55,6.81-.54.11-.4.22-.8.32-1.21-2.45-.28-4.82-.33-7.34-.16Z"/>
      <path class="cls-2" d="M89.28,39.26c.28,1.19.75,2.5,1.41,3.89,2.2-2.09,4.47-3.87,7.01-5.53-.59-1.21-1.02-2.33-1.28-3.34-2.62,1.43-4.9,3-7.14,4.98Z"/>
      <path class="cls-2" d="M86.23,42.74c-.87,1.2-1.62,2.46-2.25,3.74.31,1.15.81,2.41,1.51,3.76.62-1.21,1.36-2.42,2.22-3.6.86-1.18,1.8-2.28,2.81-3.31-.67-1.39-1.14-2.7-1.42-3.89-1.04,1.02-2,2.1-2.87,3.3Z"/>
      <path class="cls-2" d="M100.42,41.62c.5.7,1.04,1.41,1.63,2.13.47.58.97,1.14,1.48,1.7,2.37-2.13,4.24-4.66,5.7-7.41-.4-.46-.77-.91-1.12-1.35-2.7,1.49-5.22,3.11-7.69,4.94Z"/>
      <path class="cls-2" d="M86.36,52.14c-.32-.52-.62-1.04-.89-1.54-.27.53-.51,1.07-.74,1.62.55-.02,1.09-.04,1.63-.08Z"/>
      <path class="cls-2" d="M106.45,33.71c.47.86,1.08,1.78,1.81,2.74.74-.35,1.47-.69,2.22-1.01.41-.96.78-1.94,1.11-2.93-1.72.3-3.41.69-5.14,1.2Z"/>
      <path class="cls-2" d="M85.92,39.49c-.88,1.22-1.64,2.51-2.27,3.84-.09.86,0,1.87.29,3.01.62-1.28,1.37-2.54,2.25-3.74.87-1.2,1.82-2.28,2.87-3.3-.27-1.18-.35-2.22-.25-3.08-1.04.98-2.01,2.07-2.88,3.28Z"/>
      <path class="cls-2" d="M88.99,36.04c-.1.87-.01,1.9.25,3.08,2.24-1.98,4.52-3.54,7.14-4.96-.25-1-.33-1.89-.25-2.63-2.65,1.24-4.9,2.65-7.14,4.52Z"/>
      <path class="cls-2" d="M93.53,47.91c.56.79,1.18,1.59,1.85,2.4,3.12-1.14,5.75-2.74,7.95-4.68-.51-.56-1.01-1.12-1.48-1.7-.59-.72-1.14-1.44-1.64-2.14-2.37,1.92-4.56,3.94-6.68,6.12Z"/>
      <path class="cls-2" d="M109.36,37.79c.37-.72.72-1.44,1.04-2.19-.69.31-1.37.63-2.06.96.31.4.65.82,1.01,1.23Z"/>
      <path class="cls-2" d="M90.66,51.42c-.05.07-.1.14-.14.21,1.65-.31,3.19-.72,4.62-1.23-.64-.78-1.23-1.55-1.77-2.31-.97,1.06-1.87,2.18-2.7,3.33Z"/>
      <path class="cls-2" d="M100.31,41.46c2.49-1.81,5.01-3.42,7.72-4.89-.74-.97-1.35-1.9-1.83-2.77-2.88,1.06-5.54,2.31-8.2,3.83.6,1.21,1.37,2.49,2.31,3.83Z"/>
      <path class="cls-2" d="M84.58,52.23c.24-.61.51-1.2.8-1.79-.7-1.34-1.2-2.6-1.51-3.74-.83,1.75-1.45,3.61-1.81,5.52.86.03,1.7.03,2.52.01Z"/>
      <path class="cls-2" d="M105.81,27.77c2.4,0,4.63.2,6.91.65.06-.25.11-.5.16-.74-1.84-.44-3.74-.65-5.63-.63-.62.13-1.1.38-1.44.73Z"/>
      <path class="cls-2" d="M81.37,52.13s0-.09,0-.13c.02-.21.02-.31.04-.52,0-.05.01-.14.01-.14,0,0-.03.34-.06.79,0,.02,0,.04,0,.06.21,0,.43.02.64.02.36-1.95.98-3.86,1.83-5.65-.29-1.13-.39-2.14-.3-3-.85,1.86-1.85,5.83-1.85,5.83,0,0,.02-.14.03-.21.37-1.97.99-3.9,1.83-5.72.05-.42.15-.79.3-1.13.02-.05.05-.1.08-.15-.13.32-.22.67-.27,1.05.63-1.34,1.39-2.63,2.27-3.85.88-1.21,1.84-2.3,2.88-3.28.11-.85.41-1.53.89-2.03-.07.06-.13.12-.2.19.01-.02.03-.03.04-.04.07-.06.13-.13.2-.19.11-.1.23-.21.36-.32.01-.01.02-.02.02-.02,0,0-.06.05-.09.08-.03.03-.09.08-.09.08,0,0,.04-.04.06-.05.01,0,.02-.02.03-.03.62-.55,1.26-1.05,1.92-1.52.44-.33.75-.55.75-.55,0,0-.37.27-.56.41,1.51-1.03,3.14-1.88,4.84-2.54.22-.22.48-.39.78-.53-.14.05-.27.1-.41.16-.16.07-.32.13-.54.22.17-.07.35-.15.54-.22.15-.06.3-.12.49-.2.06-.03.12-.05.18-.07-.07.03-.11.04-.18.07-.03.01-.06.03-.08.05.1-.04.21-.08.31-.12.07-.03.14-.08.22-.1.35-.12,1.05-.35,1.41-.46.14-.05.23-.07.23-.07,0,0-.09.03-.23.07-.32.11-.95.32-1.63.57-.33.15-.63.33-.87.56,2.71-1.01,5.46-1.45,8.33-1.71.35-.35.84-.6,1.46-.73-.71.02-2.12.15-2.12.15,0,0,.14-.02.22-.03.65-.07,1.31-.11,1.97-.13.21-.04.43-.07.67-.09.02,0,.05,0,.07,0,.07,0,.14,0,.21,0-.26.01-.49.04-.72.09,1.87-.02,3.74.19,5.56.62,2.88-13.55.06-27.65.06-27.65-9.24,1.78-16.42,4.38-21.99,7.47v4.73c0,3.91-3.16,4.56-3.16,4.56v7.71c0,6.01-4.81,6.6-4.81,6.6h-9.66c-1.64,11.11,2.94,20.69,2.94,20.69,1.78.24,3.47.38,5.09.45,0-.02,0-.04,0-.06Z"/>
      <path class="cls-2" d="M90.12,33.72s-.16.14-.22.19c-.48.49-.78,1.17-.89,2.02,2.24-1.87,4.5-3.27,7.14-4.51.1-.74.36-1.34.8-1.8-1.8.69-5.1,2.72-5.1,2.72,0,0,.21-.16.31-.23-.06.04-.13.09-.19.14-.55.41-1.28.98-1.85,1.46Z"/>
      <path class="cls-2" d="M96.38,31.33c2.82-1.04,5.55-1.71,8.52-2.14.07-.55.28-1.01.62-1.37-2.87.26-5.63.7-8.34,1.72-.44.45-.7,1.06-.8,1.79Z"/>
      <path class="cls-2" d="M96.62,34.04c2.78-1.24,5.52-2.15,8.48-2.85-.2-.73-.27-1.37-.21-1.93-2.97.44-5.71,1.12-8.53,2.16-.08.75,0,1.63.25,2.62Z"/>
      <path class="cls-2" d="M105.16,29.17c2.52-.16,4.89-.11,7.34.19.08-.3.15-.6.22-.91-2.3-.44-4.54-.64-6.95-.64-.34.35-.54.81-.61,1.36Z"/>
      <text class="cls-3" transform="translate(0 48.54) scale(.92 1)"><tspan x="0" y="0">INNO</tspan><tspan class="cls-1" x="10.34" y="0"> </tspan><tspan x="11.29" y="0">TECH GREEN WORLD C</tspan><tspan class="cls-6" x="56.64" y="0">O</tspan><tspan x="59.37" y="0">., </tspan><tspan class="cls-5" x="62.91" y="0">L</tspan><tspan x="64.82" y="0">T</tspan><tspan class="cls-6" x="67.54" y="0">D</tspan><tspan x="70.08" y="0">.</tspan></text>
    </g>
  </g>
</svg>