<?xml version="1.0" encoding="UTF-8"?>
<svg id="Layer_2" data-name="Layer 2" xmlns="http://www.w3.org/2000/svg" viewBox="0 0 189.58 86.85">
  <defs>
    <style>
      .cls-1 {
        fill: #8bc53f;
      }

      .cls-2 {
        fill: #6d6e70;
      }
    </style>
  </defs>
  <g id="Layer_1-2" data-name="Layer 1">
    <g>
      <g>
        <path class="cls-2" d="M.09,86.7v-15.81h3.31v15.81H.09Z"/>
        <path class="cls-2" d="M8.76,75.73v10.96h-3.19v-14.43c0-.42.14-.75.41-1,.28-.25.68-.38,1.19-.38.33,0,.63.06.92.17.28.11.57.33.86.64l9.29,10.15v-10.97h3.17v14.45c0,1.01-.42,1.52-1.25,1.52-.4,0-.76-.07-1.07-.23-.31-.16-.65-.39-1.03-.72l-9.31-10.17Z"/>
        <path class="cls-2" d="M26.73,75.73v10.96h-3.2v-14.43c0-.42.14-.75.41-1,.28-.25.68-.38,1.2-.38.32,0,.63.06.91.17.29.11.57.33.87.64l9.29,10.15v-10.97h3.17v14.45c0,1.01-.42,1.52-1.25,1.52-.4,0-.76-.07-1.07-.23-.31-.16-.65-.39-1.03-.72l-9.31-10.17Z"/>
        <path class="cls-2" d="M50.8,86.7c-1.4,0-2.69-.21-3.87-.62-1.18-.41-2.19-.98-3.04-1.71-.85-.73-1.51-1.58-1.98-2.56-.47-.98-.71-2.04-.71-3.17s.23-2.17.69-3.12c.47-.95,1.12-1.76,1.96-2.45.84-.69,1.85-1.22,3.03-1.6,1.18-.38,2.49-.57,3.92-.57h.56c1.45,0,2.76.2,3.94.58,1.18.39,2.19.92,3.03,1.61.83.69,1.49,1.5,1.94,2.45.46.94.69,1.98.69,3.1s-.23,2.19-.71,3.17c-.47.98-1.14,1.83-1.99,2.56-.86.73-1.87,1.3-3.04,1.71-1.17.41-2.45.62-3.85.62h-.56ZM50.81,73.65c-.91,0-1.75.13-2.51.38-.76.26-1.42.62-1.98,1.07-.56.46-1,1.01-1.31,1.65-.32.63-.47,1.33-.47,2.11s.15,1.42.46,2.04c.31.62.74,1.16,1.29,1.61.55.45,1.21.8,1.98,1.05.77.25,1.62.38,2.55.38h.56c.94,0,1.8-.13,2.57-.38.77-.26,1.43-.61,1.98-1.07.55-.45.97-.99,1.27-1.61.3-.63.45-1.3.45-2.03s-.16-1.45-.46-2.09c-.31-.63-.75-1.18-1.3-1.65-.56-.46-1.23-.82-2-1.08-.77-.26-1.61-.38-2.52-.38h-.56Z"/>
        <path class="cls-2" d="M75.95,73.65v13.05h-3.32v-13.05h-4.85v-2.76h13.02v2.76h-4.85Z"/>
        <path class="cls-2" d="M91.48,86.7h-9.43v-15.81h9.29v2.76h-5.97v3.65h5.14v2.75h-5.14v3.89h6.12v2.76Z"/>
        <path class="cls-2" d="M102.18,86.7c-1.41,0-2.71-.21-3.89-.62-1.18-.41-2.19-.98-3.02-1.7-.84-.73-1.49-1.58-1.96-2.57-.48-.98-.71-2.05-.71-3.18s.23-2.2.7-3.14c.46-.94,1.11-1.76,1.95-2.44.84-.68,1.84-1.21,3.02-1.59,1.18-.38,2.48-.57,3.91-.57h2.78v2.76h-2.78c-.91,0-1.75.13-2.52.39-.77.26-1.43.62-2,1.09-.56.46-1,1.01-1.32,1.65-.32.65-.48,1.34-.48,2.08s.16,1.42.47,2.04c.31.62.74,1.16,1.29,1.61.55.45,1.22.8,2,1.05.78.25,1.63.38,2.56.38h2.78v2.76h-2.78Z"/>
        <path class="cls-2" d="M109.74,86.7h-3.31v-15.81h3.31v6.42h5.63v-6.42h3.31v15.81h-3.31v-6.63h-5.63v6.63Z"/>
      </g>
      <g>
        <path class="cls-2" d="M28.57,45.57c1.36.52,2.51,1.15,3.46,1.89.94.75,1.7,1.56,2.27,2.44.57.87.97,1.79,1.22,2.74.24.95.36,1.86.36,2.74,0,1.76-.4,3.4-1.22,4.93-.81,1.53-2.06,2.88-3.75,4.03-1.68,1.15-3.82,2.05-6.38,2.71-2.57.66-5.61.99-9.12.99H0V25.31h17.31c5.75,0,10.14.91,13.16,2.74,3.03,1.83,4.55,4.6,4.55,8.33,0,.84-.11,1.7-.33,2.6-.22.89-.57,1.75-1.05,2.58-.48.82-1.14,1.58-1.97,2.27-.83.69-1.86,1.28-3.1,1.75ZM8.95,32.75v27.84h7.83c3.08,0,5.59-.42,7.54-1.26,1.95-.84,2.93-2.15,2.93-3.94s-.66-3.12-1.97-3.99c-1.32-.88-2.96-1.32-4.93-1.32h-6.19v-7.44h6.19c1.98,0,3.5-.4,4.58-1.2,1.07-.8,1.61-2.07,1.61-3.81s-.73-2.99-2.2-3.75c-1.47-.76-3.98-1.15-7.54-1.15h-7.83Z"/>
        <path class="cls-2" d="M40.94,68.09V25.42h8.95v42.67h-8.95Z"/>
        <path class="cls-2" d="M80.86,68.09c-3.78,0-7.26-.55-10.45-1.67-3.19-1.11-5.92-2.65-8.2-4.62-2.29-1.97-4.06-4.28-5.34-6.92-1.27-2.64-1.91-5.49-1.91-8.56s.62-5.87,1.87-8.42c1.26-2.55,3.01-4.76,5.28-6.62,2.26-1.86,4.98-3.3,8.17-4.32,3.18-1.02,6.71-1.53,10.58-1.53h1.52c3.91,0,7.45.52,10.64,1.56,3.18,1.04,5.91,2.49,8.17,4.35,2.26,1.86,4.01,4.07,5.24,6.62,1.23,2.55,1.85,5.34,1.85,8.37s-.64,5.92-1.91,8.56c-1.28,2.65-3.07,4.95-5.37,6.92-2.3,1.97-5.04,3.51-8.2,4.62-3.16,1.12-6.63,1.67-10.41,1.67h-1.52ZM80.86,32.86c-2.45,0-4.7.35-6.77,1.04-2.06.7-3.84,1.66-5.35,2.9-1.52,1.24-2.7,2.72-3.55,4.43-.86,1.71-1.28,3.61-1.28,5.69s.42,3.85,1.25,5.52c.83,1.68,1.99,3.13,3.48,4.35,1.49,1.22,3.28,2.17,5.36,2.84,2.08.67,4.37,1.01,6.87,1.01h1.51c2.54,0,4.85-.34,6.93-1.04,2.08-.7,3.87-1.65,5.36-2.87,1.49-1.22,2.64-2.67,3.45-4.35.81-1.68,1.22-3.5,1.22-5.47s-.42-3.92-1.25-5.63c-.83-1.71-2-3.2-3.51-4.46-1.51-1.26-3.31-2.23-5.39-2.93-2.08-.69-4.34-1.04-6.8-1.04h-1.51Z"/>
      </g>
      <g>
        <path class="cls-1" d="M150.96,20.27v-7.86c9.26-5.14,21.2-9.45,36.56-12.41,0,0,19.44,96.81-60.96,86,0,0-7.63-15.91-4.89-34.38h16.06s7.99-.98,7.99-10.96v-12.81s5.25-1.07,5.25-7.57Z"/>
        <path class="cls-1" d="M127.45,29.33h8.23c2.34,0,4.24,1.9,4.24,4.24v8.22c0,2.34-1.9,4.24-4.24,4.24h-8.23c-2.34,0-4.24-1.9-4.24-4.24v-8.23c0-2.34,1.9-4.24,4.24-4.24Z"/>
        <path class="cls-1" d="M128.5,11.06c0-2.35,1.89-4.24,4.24-4.24h8.23c2.35,0,4.25,1.9,4.25,4.24v8.23c0,2.34-1.9,4.24-4.25,4.24h-8.23c-2.35,0-4.24-1.9-4.24-4.24v-8.23Z"/>
        <path class="cls-1" d="M112.48,15.21h3.57c1.02,0,1.84.83,1.84,1.84v3.58c0,1.02-.83,1.85-1.85,1.85h-3.57c-1.02,0-1.84-.83-1.84-1.84v-3.58c0-1.02.83-1.85,1.85-1.85Z"/>
      </g>
    </g>
  </g>
</svg>