<?xml version="1.0" encoding="UTF-8"?>
<svg id="Layer_1" xmlns="http://www.w3.org/2000/svg" version="1.1" xmlns:xlink="http://www.w3.org/1999/xlink" viewBox="0 0 640 640">
  <!-- Generator: Adobe Illustrator 30.1.0, SVG Export Plug-In . SVG Version: 2.1.1 Build 136)  -->
  <defs>
    <style>
      .st0 {
        fill: #38bdf8;
      }

      .st1 {
        fill: url(#linear-gradient);
      }
    </style>
    <linearGradient id="linear-gradient" x1="-1" y1="319.9" x2="641" y2="319.9" gradientUnits="userSpaceOnUse">
      <stop offset="0" stop-color="#016394"/>
      <stop offset="1" stop-color="#08204f"/>
    </linearGradient>
  </defs>
  <rect class="st1" x="-1" y="-2.1" width="642" height="644"/>
  <path class="st0" d="M453.4,287.5h3.4c11.5,0,20.8-9.3,20.8-20.8s-2.6-11.7-7.1-15.7l-129.3-113.1c-5.8-5.2-13.4-8-21.2-8s-15.4,2.8-21.2,8l-129.3,113.1c-4.5,3.9-7.1,9.7-7.1,15.7,0,11.5,9.3,20.8,20.8,20.8h3.4v71.5c15.4-7.1,31.9-10.8,48.5-10.9,25.1-.2,50.2,7.7,71.5,23.8,16.7,12.6,22.1,12.6,38.8,0,20.8-15.7,45.4-23.6,70-23.8,12.8,0,25.6,2,37.9,6.1v-66.7ZM437.2,442.2c14.4,10.9,31.8,21.4,50.9,25.2,20.1,4.1,41.1.6,61.2-14.5,8-6.1,9.6-17.4,3.6-25.5-6.1-8-17.4-9.6-25.5-3.6-11.3,8.5-21.7,9.9-32.1,7.8-11.3-2.3-23.4-9-36.2-18.6-29.1-22-68.6-22-97.8,0-18.2,13.7-30.8,19.9-41.3,19.9s-23.1-6.2-41.3-19.9c-29.1-22-68.6-22-97.8,0-16.4,12.4-31.3,19.6-44.6,19.5-7.3,0-15.1-2.3-23.6-8.7-8-6.1-19.4-4.5-25.5,3.6-6.1,8-4.4,19.5,3.6,25.5,14.5,10.9,29.9,15.9,45.3,16,25.7.2,48.7-13.2,66.8-26.7,16.1-12.2,37.8-12.2,54,0,18.3,13.9,39.6,27.2,63.2,27.2s44.8-13.4,63.2-27.2c16.1-12.2,37.8-12.2,54,0h0ZM383.2,514.9c16.1-12.2,37.8-12.2,54,0,14.4,10.9,31.8,21.4,50.9,25.2,20.1,4.1,41.1.6,61.2-14.5,8-6.1,9.6-17.4,3.6-25.5-6.1-8-17.4-9.6-25.5-3.6-11.3,8.5-21.7,9.9-32.1,7.8-11.3-2.3-23.4-9-36.2-18.6-29.1-22-68.6-22-97.8,0-18.2,13.7-30.8,19.9-41.3,19.9s-23.1-6.2-41.3-19.9c-29.1-22-68.6-22-97.8,0-16.4,12.4-31.3,19.6-44.6,19.5-7.3,0-15.1-2.3-23.6-8.7-8-6.1-19.4-4.5-25.5,3.6-6.1,8-4.4,19.5,3.6,25.5,14.5,10.9,29.9,15.9,45.3,16,25.7.2,48.7-13.2,66.8-26.7,16.1-12.2,37.8-12.2,54,0,18.3,13.9,39.6,27.2,63.2,27.2s44.8-13.4,63.2-27.2h0Z"/>
</svg>